<?xml version="1.0" encoding="utf-8"?>
<!-- Generator: Adobe Illustrator 16.0.0, SVG Export Plug-In . SVG Version: 6.00 Build 0)  -->
<!DOCTYPE svg PUBLIC "-//W3C//DTD SVG 1.1//EN" "http://www.w3.org/Graphics/SVG/1.1/DTD/svg11.dtd">
<svg version="1.1" id="Layer_1" xmlns="http://www.w3.org/2000/svg" xmlns:xlink="http://www.w3.org/1999/xlink" x="0px" y="0px"
	 width="141.73px" height="141.73px" viewBox="0 0 141.73 141.73" enable-background="new 0 0 141.73 141.73" xml:space="preserve">
<path fill="black" enable-background="new    " d="M99.212,56.692H42.519c-7.827,0-14.173-6.346-14.173-14.173
	s6.346-14.173,14.173-14.173h56.692c7.826,0,14.173,6.346,14.173,14.173h28.348c0-23.482-19.038-42.521-42.521-42.521H42.519
	c-23.482,0-42.521,19.038-42.521,42.521c0,10.89,4.098,20.824,10.833,28.348c7.784,8.699,19.098,14.171,31.688,14.171h56.692
	c7.826,0,14.173,6.347,14.173,14.174c0,7.826-6.347,14.173-14.173,14.173H42.519c-7.827,0-14.173-6.347-14.173-14.173H-0.001
	c0,23.483,19.038,42.521,42.521,42.521h56.691c23.483,0,42.521-19.038,42.521-42.521c0-10.89-4.098-20.826-10.833-28.349
	C123.115,62.165,111.802,56.692,99.212,56.692z"/>
</svg>
